<!-- Save as assets/icons/github-light.svg -->
<svg xmlns="http://www.w3.org/2000/svg" width="24" height="24" fill="#ffffff" viewBox="0 0 24 24">
  <path d="M12 .5C5.65.5.5 5.66.5 12c0 5.09 3.29 9.41 7.86 10.95.58.1.79-.25.79-.56v-2.17c-3.2.7-3.87-1.39-3.87-1.39-.52-1.34-1.26-1.7-1.26-1.7-1.03-.7.08-.69.08-.69 1.14.08 1.75 1.18 1.75 1.18 1.01 1.75 2.65 1.24 3.3.95.1-.73.4-1.25.72-1.54-2.55-.29-5.24-1.27-5.24-5.65 0-1.25.45-2.27 1.17-3.07-.12-.29-.51-1.44.11-3.01 0 0 .96-.31 3.14 1.18a10.93 10.93 0 012.86-.39c.97.01 1.95.13 2.86.39 2.18-1.5 3.13-1.18 3.13-1.18.63 1.57.24 2.72.12 3.01.72.8 1.16 1.82 1.16 3.07 0 4.4-2.7 5.36-5.27 5.64.42.37.77 1.09.77 2.2v3.26c0 .31.21.66.8.55A10.996 10.996 0 0023.5 12c0-6.34-5.15-11.5-11.5-11.5z"/>
</svg>
